<svg width="1420" height="507" viewBox="0 0 1420 507" fill="none" xmlns="http://www.w3.org/2000/svg">
    <g clip-path="url(#clip0_205_3443)">
    <rect x="73" width="1269" height="474" rx="12" fill="#2C016B"/>
    <path d="M1342 4.51001V474H435.44L1342 4.51001Z" fill="url(#paint0_linear_205_3443)" fill-opacity="0.2"/>
    <path d="M73 29.55V474H931.2L73 29.55Z" fill="url(#paint1_linear_205_3443)" fill-opacity="0.2"/>
    <path d="M1254.46 256.04L1342 343.58V168.51L1254.46 256.04Z" fill="#FFB703"/>
    <path d="M1073.92 91.9001L1093.58 57.8401L1113.25 91.9001H1073.92Z" fill="#FFB703"/>
    <path d="M1060.72 98.1501L1080.38 64.0901L1100.05 98.1501H1060.72Z" stroke="#262626" stroke-width="1.3076" stroke-miterlimit="10" stroke-linecap="round" stroke-linejoin="round"/>
    <path d="M1263.34 93.5099C1263.34 91.9199 1264.63 90.6199 1266.23 90.6199C1267.82 90.6199 1269.12 91.9099 1269.12 93.5099C1269.12 95.0999 1267.83 96.3999 1266.23 96.3999C1264.63 96.3999 1263.34 95.0999 1263.34 93.5099Z" fill="#E0E0E6"/>
    <path d="M1250.71 93.5099C1250.71 91.9199 1252 90.6199 1253.6 90.6199C1255.19 90.6199 1256.49 91.9099 1256.49 93.5099C1256.49 95.0999 1255.2 96.3999 1253.6 96.3999C1252 96.3999 1250.71 95.0999 1250.71 93.5099Z" fill="#E0E0E6"/>
    <path d="M1238.08 93.5099C1238.08 91.9199 1239.37 90.6199 1240.97 90.6199C1242.56 90.6199 1243.86 91.9099 1243.86 93.5099C1243.86 95.0999 1242.57 96.3999 1240.97 96.3999C1239.37 96.3999 1238.08 95.0999 1238.08 93.5099Z" fill="#E0E0E6"/>
    <path d="M1225.45 93.5099C1225.45 91.9199 1226.74 90.6199 1228.34 90.6199C1229.93 90.6199 1231.23 91.9099 1231.23 93.5099C1231.23 95.0999 1229.94 96.3999 1228.34 96.3999C1226.74 96.3999 1225.45 95.0999 1225.45 93.5099Z" fill="#E0E0E6"/>
    <path d="M1212.82 93.5099C1212.82 91.9199 1214.11 90.6199 1215.71 90.6199C1217.3 90.6199 1218.6 91.9099 1218.6 93.5099C1218.6 95.0999 1217.31 96.3999 1215.71 96.3999C1214.11 96.3999 1212.82 95.0999 1212.82 93.5099Z" fill="#E0E0E6"/>
    <path d="M1200.19 93.5099C1200.19 91.9199 1201.48 90.6199 1203.08 90.6199C1204.67 90.6199 1205.97 91.9099 1205.97 93.5099C1205.97 95.0999 1204.68 96.3999 1203.08 96.3999C1201.48 96.3999 1200.19 95.0999 1200.19 93.5099Z" fill="#E0E0E6"/>
    <path d="M1263.34 80.8797C1263.34 79.2797 1264.63 77.9897 1266.23 77.9897C1267.82 77.9897 1269.12 79.2797 1269.12 80.8797C1269.12 82.4697 1267.83 83.7697 1266.23 83.7697C1264.63 83.7697 1263.34 82.4797 1263.34 80.8797Z" fill="#E0E0E6"/>
    <path d="M1250.71 80.8797C1250.71 79.2797 1252 77.9897 1253.6 77.9897C1255.19 77.9897 1256.49 79.2797 1256.49 80.8797C1256.49 82.4697 1255.2 83.7697 1253.6 83.7697C1252 83.7697 1250.71 82.4797 1250.71 80.8797Z" fill="#E0E0E6"/>
    <path d="M1238.08 80.8797C1238.08 79.2797 1239.37 77.9897 1240.97 77.9897C1242.56 77.9897 1243.86 79.2797 1243.86 80.8797C1243.86 82.4697 1242.57 83.7697 1240.97 83.7697C1239.37 83.7697 1238.08 82.4797 1238.08 80.8797Z" fill="#E0E0E6"/>
    <path d="M1225.45 80.8797C1225.45 79.2797 1226.74 77.9897 1228.34 77.9897C1229.93 77.9897 1231.23 79.2797 1231.23 80.8797C1231.23 82.4697 1229.94 83.7697 1228.34 83.7697C1226.74 83.7697 1225.45 82.4797 1225.45 80.8797Z" fill="#E0E0E6"/>
    <path d="M1212.82 80.8797C1212.82 79.2797 1214.11 77.9897 1215.71 77.9897C1217.3 77.9897 1218.6 79.2797 1218.6 80.8797C1218.6 82.4697 1217.31 83.7697 1215.71 83.7697C1214.11 83.7697 1212.82 82.4797 1212.82 80.8797Z" fill="#E0E0E6"/>
    <path d="M1200.19 80.8797C1200.19 79.2797 1201.48 77.9897 1203.08 77.9897C1204.67 77.9897 1205.97 79.2797 1205.97 80.8797C1205.97 82.4697 1204.68 83.7697 1203.08 83.7697C1201.48 83.7697 1200.19 82.4797 1200.19 80.8797Z" fill="#E0E0E6"/>
    <path d="M1263.34 68.2499C1263.34 66.6599 1264.63 65.3599 1266.23 65.3599C1267.82 65.3599 1269.12 66.6499 1269.12 68.2499C1269.12 69.8399 1267.83 71.1399 1266.23 71.1399C1264.63 71.1399 1263.34 69.8499 1263.34 68.2499Z" fill="#E0E0E6"/>
    <path d="M1250.71 68.2499C1250.71 66.6599 1252 65.3599 1253.6 65.3599C1255.19 65.3599 1256.49 66.6499 1256.49 68.2499C1256.49 69.8399 1255.2 71.1399 1253.6 71.1399C1252 71.1399 1250.71 69.8499 1250.71 68.2499Z" fill="#E0E0E6"/>
    <path d="M1238.08 68.2499C1238.08 66.6599 1239.37 65.3599 1240.97 65.3599C1242.56 65.3599 1243.86 66.6499 1243.86 68.2499C1243.86 69.8399 1242.57 71.1399 1240.97 71.1399C1239.37 71.1399 1238.08 69.8499 1238.08 68.2499Z" fill="#E0E0E6"/>
    <path d="M1225.45 68.2499C1225.45 66.6599 1226.74 65.3599 1228.34 65.3599C1229.93 65.3599 1231.23 66.6499 1231.23 68.2499C1231.23 69.8399 1229.94 71.1399 1228.34 71.1399C1226.74 71.1399 1225.45 69.8499 1225.45 68.2499Z" fill="#E0E0E6"/>
    <path d="M1212.82 68.2499C1212.82 66.6599 1214.11 65.3599 1215.71 65.3599C1217.3 65.3599 1218.6 66.6499 1218.6 68.2499C1218.6 69.8399 1217.31 71.1399 1215.71 71.1399C1214.11 71.1399 1212.82 69.8499 1212.82 68.2499Z" fill="#E0E0E6"/>
    <path d="M1200.19 68.2499C1200.19 66.6599 1201.48 65.3599 1203.08 65.3599C1204.67 65.3599 1205.97 66.6499 1205.97 68.2499C1205.97 69.8399 1204.68 71.1399 1203.08 71.1399C1201.48 71.1399 1200.19 69.8499 1200.19 68.2499Z" fill="#E0E0E6"/>
    <path d="M537.56 417.42C548.169 417.42 556.77 408.819 556.77 398.21C556.77 387.601 548.169 379 537.56 379C526.951 379 518.35 387.601 518.35 398.21C518.35 408.819 526.951 417.42 537.56 417.42Z" fill="#FFB703"/>
    <path d="M521.31 428.02C531.919 428.02 540.52 419.42 540.52 408.81C540.52 398.201 531.919 389.6 521.31 389.6C510.701 389.6 502.1 398.201 502.1 408.81C502.1 419.42 510.701 428.02 521.31 428.02Z" stroke="#262626" stroke-width="1.3076" stroke-miterlimit="10" stroke-linecap="round" stroke-linejoin="round"/>
    <path d="M169.009 61.935C167.419 61.935 166.119 60.645 166.119 59.045C166.119 57.455 167.409 56.155 169.009 56.155C170.599 56.155 171.899 57.445 171.899 59.045C171.889 60.645 170.599 61.935 169.009 61.935Z" fill="#E0E0E6"/>
    <path d="M169.009 74.5652C167.419 74.5652 166.119 73.2752 166.119 71.6752C166.119 70.0852 167.409 68.7852 169.009 68.7852C170.599 68.7852 171.899 70.0752 171.899 71.6752C171.889 73.2752 170.599 74.5652 169.009 74.5652Z" fill="#E0E0E6"/>
    <path d="M169.009 87.1951C167.419 87.1951 166.119 85.905 166.119 84.305C166.119 82.715 167.409 81.415 169.009 81.415C170.599 81.415 171.899 82.705 171.899 84.305C171.889 85.905 170.599 87.1951 169.009 87.1951Z" fill="#E0E0E6"/>
    <path d="M169.009 99.8249C167.419 99.8249 166.119 98.5349 166.119 96.9349C166.119 95.3449 167.409 94.0449 169.009 94.0449C170.599 94.0449 171.899 95.3349 171.899 96.9349C171.889 98.5349 170.599 99.8249 169.009 99.8249Z" fill="#E0E0E6"/>
    <path d="M169.009 112.455C167.419 112.455 166.119 111.165 166.119 109.565C166.119 107.975 167.409 106.675 169.009 106.675C170.599 106.675 171.899 107.965 171.899 109.565C171.889 111.165 170.599 112.455 169.009 112.455Z" fill="#E0E0E6"/>
    <path d="M169.009 125.085C167.419 125.085 166.119 123.795 166.119 122.195C166.119 120.605 167.409 119.305 169.009 119.305C170.599 119.305 171.899 120.595 171.899 122.195C171.889 123.795 170.599 125.085 169.009 125.085Z" fill="#E0E0E6"/>
    <path d="M156.379 61.935C154.779 61.935 153.489 60.645 153.489 59.045C153.489 57.455 154.779 56.155 156.379 56.155C157.969 56.155 159.269 57.445 159.269 59.045C159.269 60.645 157.969 61.935 156.379 61.935Z" fill="#E0E0E6"/>
    <path d="M156.379 74.5652C154.779 74.5652 153.489 73.2752 153.489 71.6752C153.489 70.0852 154.779 68.7852 156.379 68.7852C157.969 68.7852 159.269 70.0752 159.269 71.6752C159.269 73.2752 157.969 74.5652 156.379 74.5652Z" fill="#E0E0E6"/>
    <path d="M156.379 87.1951C154.779 87.1951 153.489 85.905 153.489 84.305C153.489 82.715 154.779 81.415 156.379 81.415C157.969 81.415 159.269 82.705 159.269 84.305C159.269 85.905 157.969 87.1951 156.379 87.1951Z" fill="#E0E0E6"/>
    <path d="M156.379 99.8249C154.779 99.8249 153.489 98.5349 153.489 96.9349C153.489 95.3449 154.779 94.0449 156.379 94.0449C157.969 94.0449 159.269 95.3349 159.269 96.9349C159.269 98.5349 157.969 99.8249 156.379 99.8249Z" fill="#E0E0E6"/>
    <path d="M156.379 112.455C154.779 112.455 153.489 111.165 153.489 109.565C153.489 107.975 154.779 106.675 156.379 106.675C157.969 106.675 159.269 107.965 159.269 109.565C159.269 111.165 157.969 112.455 156.379 112.455Z" fill="#E0E0E6"/>
    <path d="M156.379 125.085C154.779 125.085 153.489 123.795 153.489 122.195C153.489 120.605 154.779 119.305 156.379 119.305C157.969 119.305 159.269 120.595 159.269 122.195C159.269 123.795 157.969 125.085 156.379 125.085Z" fill="#E0E0E6"/>
    <path d="M143.749 61.935C142.149 61.935 140.859 60.645 140.859 59.045C140.859 57.455 142.149 56.155 143.749 56.155C145.339 56.155 146.639 57.445 146.639 59.045C146.639 60.645 145.339 61.935 143.749 61.935Z" fill="#E0E0E6"/>
    <path d="M143.749 74.5652C142.149 74.5652 140.859 73.2752 140.859 71.6752C140.859 70.0852 142.149 68.7852 143.749 68.7852C145.339 68.7852 146.639 70.0752 146.639 71.6752C146.639 73.2752 145.339 74.5652 143.749 74.5652Z" fill="#E0E0E6"/>
    <path d="M143.749 87.1951C142.149 87.1951 140.859 85.905 140.859 84.305C140.859 82.715 142.149 81.415 143.749 81.415C145.339 81.415 146.639 82.705 146.639 84.305C146.639 85.905 145.339 87.1951 143.749 87.1951Z" fill="#E0E0E6"/>
    <path d="M143.749 99.8249C142.149 99.8249 140.859 98.5349 140.859 96.9349C140.859 95.3449 142.149 94.0449 143.749 94.0449C145.339 94.0449 146.639 95.3349 146.639 96.9349C146.639 98.5349 145.339 99.8249 143.749 99.8249Z" fill="#E0E0E6"/>
    <path d="M143.749 112.455C142.149 112.455 140.859 111.165 140.859 109.565C140.859 107.975 142.149 106.675 143.749 106.675C145.339 106.675 146.639 107.965 146.639 109.565C146.639 111.165 145.339 112.455 143.749 112.455Z" fill="#E0E0E6"/>
    <path d="M143.749 125.085C142.149 125.085 140.859 123.795 140.859 122.195C140.859 120.605 142.149 119.305 143.749 119.305C145.339 119.305 146.639 120.595 146.639 122.195C146.639 123.795 145.339 125.085 143.749 125.085Z" fill="#E0E0E6"/>
    <g clip-path="url(#clip1_205_3443)">
    <path d="M1214.08 428.015L1231.23 418.115V437.925L1214.08 428.015Z" fill="#FEFEFE"/>
    <path d="M1185.35 428.015L1202.5 418.115V437.925L1185.35 428.015Z" fill="#FEFEFE"/>
    <path d="M1156.62 428.015L1173.77 418.115V437.925L1156.62 428.015Z" fill="#F59D1B"/>
    </g>
    <path d="M160.191 184.535C159.38 183.042 158.207 181.911 156.671 181.143C155.178 180.332 153.407 179.927 151.359 179.927C147.818 179.927 144.98 181.1 142.847 183.447C140.714 185.751 139.647 188.844 139.647 192.727C139.647 196.866 140.756 200.108 142.975 202.455C145.236 204.759 148.33 205.911 152.255 205.911C154.943 205.911 157.204 205.228 159.039 203.863C160.916 202.498 162.282 200.535 163.135 197.975H149.247V189.911H173.055V200.087C172.244 202.818 170.858 205.356 168.895 207.703C166.975 210.05 164.522 211.948 161.535 213.399C158.548 214.85 155.178 215.575 151.423 215.575C146.986 215.575 143.018 214.615 139.519 212.695C136.063 210.732 133.354 208.023 131.391 204.567C129.471 201.111 128.511 197.164 128.511 192.727C128.511 188.29 129.471 184.343 131.391 180.887C133.354 177.388 136.063 174.679 139.519 172.759C142.975 170.796 146.922 169.815 151.359 169.815C156.735 169.815 161.258 171.116 164.927 173.719C168.639 176.322 171.092 179.927 172.287 184.535H160.191ZM209.645 207.319H192.877L190.189 215.255H178.733L194.989 170.327H207.661L223.917 215.255H212.333L209.645 207.319ZM206.829 198.871L201.261 182.423L195.757 198.871H206.829ZM242.368 170.327V215.255H231.424V170.327H242.368ZM293.051 215.255H282.107L263.803 187.543V215.255H252.859V170.327H263.803L282.107 198.167V170.327H293.051V215.255ZM330.611 170.327V215.255H319.667V170.327H330.611ZM381.294 215.255H370.35L352.046 187.543V215.255H341.102V170.327H352.046L370.35 198.167V170.327H381.294V215.255ZM408.043 215.703C404.758 215.703 401.814 215.17 399.211 214.103C396.608 213.036 394.518 211.458 392.939 209.367C391.403 207.276 390.592 204.759 390.507 201.815H402.155C402.326 203.479 402.902 204.759 403.883 205.655C404.864 206.508 406.144 206.935 407.723 206.935C409.344 206.935 410.624 206.572 411.563 205.847C412.502 205.079 412.971 204.034 412.971 202.711C412.971 201.602 412.587 200.684 411.819 199.959C411.094 199.234 410.176 198.636 409.067 198.167C408 197.698 406.464 197.164 404.459 196.567C401.558 195.671 399.19 194.775 397.355 193.879C395.52 192.983 393.942 191.66 392.619 189.911C391.296 188.162 390.635 185.879 390.635 183.063C390.635 178.882 392.15 175.618 395.179 173.271C398.208 170.882 402.155 169.687 407.019 169.687C411.968 169.687 415.958 170.882 418.987 173.271C422.016 175.618 423.638 178.903 423.851 183.127H412.011C411.926 181.676 411.392 180.546 410.411 179.735C409.43 178.882 408.171 178.455 406.635 178.455C405.312 178.455 404.246 178.818 403.435 179.543C402.624 180.226 402.219 181.228 402.219 182.551C402.219 184.002 402.902 185.132 404.267 185.943C405.632 186.754 407.766 187.628 410.667 188.567C413.568 189.548 415.915 190.487 417.707 191.383C419.542 192.279 421.12 193.58 422.443 195.287C423.766 196.994 424.427 199.191 424.427 201.879C424.427 204.439 423.766 206.764 422.443 208.855C421.163 210.946 419.286 212.61 416.811 213.847C414.336 215.084 411.414 215.703 408.043 215.703ZM466.042 170.327V179.095H454.138V215.255H443.194V179.095H431.29V170.327H466.042ZM502.062 207.319H485.294L482.606 215.255H471.15L487.406 170.327H500.078L516.334 215.255H504.75L502.062 207.319ZM499.246 198.871L493.678 182.423L488.174 198.871H499.246ZM564.034 215.255H553.09L534.786 187.543V215.255H523.842V170.327H534.786L553.09 198.167V170.327H564.034V215.255ZM606.847 170.327V179.095H594.943V215.255H583.999V179.095H572.095V170.327H606.847Z" fill="white"/>
    <path d="M150.279 240.215C150.279 241.842 149.906 243.335 149.159 244.695C148.412 246.028 147.266 247.108 145.719 247.935C144.172 248.762 142.252 249.175 139.959 249.175H135.719V259.255H128.879V231.175H139.959C142.199 231.175 144.092 231.562 145.639 232.335C147.186 233.108 148.346 234.175 149.119 235.535C149.892 236.895 150.279 238.455 150.279 240.215ZM139.439 243.735C140.746 243.735 141.719 243.428 142.359 242.815C142.999 242.202 143.319 241.335 143.319 240.215C143.319 239.095 142.999 238.228 142.359 237.615C141.719 237.002 140.746 236.695 139.439 236.695H135.719V243.735H139.439ZM162.28 236.655V242.335H171.44V247.615H162.28V253.775H172.64V259.255H155.44V231.175H172.64V236.655H162.28ZM193 259.255L187.16 248.655H185.52V259.255H178.68V231.175H190.16C192.374 231.175 194.254 231.562 195.8 232.335C197.374 233.108 198.547 234.175 199.32 235.535C200.094 236.868 200.48 238.362 200.48 240.015C200.48 241.882 199.947 243.548 198.88 245.015C197.84 246.482 196.294 247.522 194.24 248.135L200.72 259.255H193ZM185.52 243.815H189.76C191.014 243.815 191.947 243.508 192.56 242.895C193.2 242.282 193.52 241.415 193.52 240.295C193.52 239.228 193.2 238.388 192.56 237.775C191.947 237.162 191.014 236.855 189.76 236.855H185.52V243.815ZM216.534 259.535C214.481 259.535 212.641 259.202 211.014 258.535C209.388 257.868 208.081 256.882 207.094 255.575C206.134 254.268 205.628 252.695 205.574 250.855H212.854C212.961 251.895 213.321 252.695 213.934 253.255C214.548 253.788 215.348 254.055 216.334 254.055C217.348 254.055 218.148 253.828 218.734 253.375C219.321 252.895 219.614 252.242 219.614 251.415C219.614 250.722 219.374 250.148 218.894 249.695C218.441 249.242 217.868 248.868 217.174 248.575C216.508 248.282 215.548 247.948 214.294 247.575C212.481 247.015 211.001 246.455 209.854 245.895C208.708 245.335 207.721 244.508 206.894 243.415C206.068 242.322 205.654 240.895 205.654 239.135C205.654 236.522 206.601 234.482 208.494 233.015C210.388 231.522 212.854 230.775 215.894 230.775C218.988 230.775 221.481 231.522 223.374 233.015C225.268 234.482 226.281 236.535 226.414 239.175H219.014C218.961 238.268 218.628 237.562 218.014 237.055C217.401 236.522 216.614 236.255 215.654 236.255C214.828 236.255 214.161 236.482 213.654 236.935C213.148 237.362 212.894 237.988 212.894 238.815C212.894 239.722 213.321 240.428 214.174 240.935C215.028 241.442 216.361 241.988 218.174 242.575C219.988 243.188 221.454 243.775 222.574 244.335C223.721 244.895 224.708 245.708 225.534 246.775C226.361 247.842 226.774 249.215 226.774 250.895C226.774 252.495 226.361 253.948 225.534 255.255C224.734 256.562 223.561 257.602 222.014 258.375C220.468 259.148 218.641 259.535 216.534 259.535ZM245.864 259.535C243.224 259.535 240.797 258.922 238.584 257.695C236.397 256.468 234.65 254.762 233.344 252.575C232.064 250.362 231.424 247.882 231.424 245.135C231.424 242.388 232.064 239.922 233.344 237.735C234.65 235.548 236.397 233.842 238.584 232.615C240.797 231.388 243.224 230.775 245.864 230.775C248.504 230.775 250.917 231.388 253.104 232.615C255.317 233.842 257.05 235.548 258.304 237.735C259.584 239.922 260.224 242.388 260.224 245.135C260.224 247.882 259.584 250.362 258.304 252.575C257.024 254.762 255.29 256.468 253.104 257.695C250.917 258.922 248.504 259.535 245.864 259.535ZM245.864 253.295C248.104 253.295 249.89 252.548 251.224 251.055C252.584 249.562 253.264 247.588 253.264 245.135C253.264 242.655 252.584 240.682 251.224 239.215C249.89 237.722 248.104 236.975 245.864 236.975C243.597 236.975 241.784 237.708 240.424 239.175C239.09 240.642 238.424 242.628 238.424 245.135C238.424 247.615 239.09 249.602 240.424 251.095C241.784 252.562 243.597 253.295 245.864 253.295ZM290.749 259.255H283.909L272.469 241.935V259.255H265.629V231.175H272.469L283.909 248.575V231.175H290.749V259.255ZM314.787 254.295H304.307L302.627 259.255H295.467L305.627 231.175H313.547L323.707 259.255H316.467L314.787 254.295ZM313.027 249.015L309.547 238.735L306.107 249.015H313.027ZM335.239 253.975H344.199V259.255H328.399V231.175H335.239V253.975ZM355.902 231.175V259.255H349.062V231.175H355.902ZM369.739 253.655H381.819V259.255H361.979V254.055L373.979 236.775H361.979V231.175H381.819V236.375L369.739 253.655ZM394.727 236.655V242.335H403.887V247.615H394.727V253.775H405.087V259.255H387.887V231.175H405.087V236.655H394.727ZM421.647 231.175C424.607 231.175 427.194 231.762 429.407 232.935C431.621 234.108 433.327 235.762 434.527 237.895C435.754 240.002 436.367 242.442 436.367 245.215C436.367 247.962 435.754 250.402 434.527 252.535C433.327 254.668 431.607 256.322 429.367 257.495C427.154 258.668 424.581 259.255 421.647 259.255H411.127V231.175H421.647ZM421.207 253.335C423.794 253.335 425.807 252.628 427.247 251.215C428.687 249.802 429.407 247.802 429.407 245.215C429.407 242.628 428.687 240.615 427.247 239.175C425.807 237.735 423.794 237.015 421.207 237.015H417.967V253.335H421.207ZM469.346 254.295H458.866L457.186 259.255H450.026L460.186 231.175H468.106L478.266 259.255H471.026L469.346 254.295ZM467.586 249.015L464.106 238.735L460.666 249.015H467.586ZM493.119 259.535C491.065 259.535 489.225 259.202 487.599 258.535C485.972 257.868 484.665 256.882 483.679 255.575C482.719 254.268 482.212 252.695 482.159 250.855H489.439C489.545 251.895 489.905 252.695 490.519 253.255C491.132 253.788 491.932 254.055 492.919 254.055C493.932 254.055 494.732 253.828 495.319 253.375C495.905 252.895 496.199 252.242 496.199 251.415C496.199 250.722 495.959 250.148 495.479 249.695C495.025 249.242 494.452 248.868 493.759 248.575C493.092 248.282 492.132 247.948 490.879 247.575C489.065 247.015 487.585 246.455 486.439 245.895C485.292 245.335 484.305 244.508 483.479 243.415C482.652 242.322 482.239 240.895 482.239 239.135C482.239 236.522 483.185 234.482 485.079 233.015C486.972 231.522 489.439 230.775 492.479 230.775C495.572 230.775 498.065 231.522 499.959 233.015C501.852 234.482 502.865 236.535 502.999 239.175H495.599C495.545 238.268 495.212 237.562 494.599 237.055C493.985 236.522 493.199 236.255 492.239 236.255C491.412 236.255 490.745 236.482 490.239 236.935C489.732 237.362 489.479 237.988 489.479 238.815C489.479 239.722 489.905 240.428 490.759 240.935C491.612 241.442 492.945 241.988 494.759 242.575C496.572 243.188 498.039 243.775 499.159 244.335C500.305 244.895 501.292 245.708 502.119 246.775C502.945 247.842 503.359 249.215 503.359 250.895C503.359 252.495 502.945 253.948 502.119 255.255C501.319 256.562 500.145 257.602 498.599 258.375C497.052 259.148 495.225 259.535 493.119 259.535ZM519.328 259.535C517.275 259.535 515.435 259.202 513.808 258.535C512.181 257.868 510.875 256.882 509.888 255.575C508.928 254.268 508.421 252.695 508.368 250.855H515.648C515.755 251.895 516.115 252.695 516.728 253.255C517.341 253.788 518.141 254.055 519.128 254.055C520.141 254.055 520.941 253.828 521.528 253.375C522.115 252.895 522.408 252.242 522.408 251.415C522.408 250.722 522.168 250.148 521.688 249.695C521.235 249.242 520.661 248.868 519.968 248.575C519.301 248.282 518.341 247.948 517.088 247.575C515.275 247.015 513.795 246.455 512.648 245.895C511.501 245.335 510.515 244.508 509.688 243.415C508.861 242.322 508.448 240.895 508.448 239.135C508.448 236.522 509.395 234.482 511.288 233.015C513.181 231.522 515.648 230.775 518.688 230.775C521.781 230.775 524.275 231.522 526.168 233.015C528.061 234.482 529.075 236.535 529.208 239.175H521.808C521.755 238.268 521.421 237.562 520.808 237.055C520.195 236.522 519.408 236.255 518.448 236.255C517.621 236.255 516.955 236.482 516.448 236.935C515.941 237.362 515.688 237.988 515.688 238.815C515.688 239.722 516.115 240.428 516.968 240.935C517.821 241.442 519.155 241.988 520.968 242.575C522.781 243.188 524.248 243.775 525.368 244.335C526.515 244.895 527.501 245.708 528.328 246.775C529.155 247.842 529.568 249.215 529.568 250.895C529.568 252.495 529.155 253.948 528.328 255.255C527.528 256.562 526.355 257.602 524.808 258.375C523.261 259.148 521.435 259.535 519.328 259.535ZM542.217 231.175V259.255H535.377V231.175H542.217ZM558.934 259.535C556.881 259.535 555.041 259.202 553.414 258.535C551.788 257.868 550.481 256.882 549.494 255.575C548.534 254.268 548.028 252.695 547.974 250.855H555.254C555.361 251.895 555.721 252.695 556.334 253.255C556.948 253.788 557.748 254.055 558.734 254.055C559.748 254.055 560.548 253.828 561.134 253.375C561.721 252.895 562.014 252.242 562.014 251.415C562.014 250.722 561.774 250.148 561.294 249.695C560.841 249.242 560.268 248.868 559.574 248.575C558.908 248.282 557.948 247.948 556.694 247.575C554.881 247.015 553.401 246.455 552.254 245.895C551.108 245.335 550.121 244.508 549.294 243.415C548.468 242.322 548.054 240.895 548.054 239.135C548.054 236.522 549.001 234.482 550.894 233.015C552.788 231.522 555.254 230.775 558.294 230.775C561.388 230.775 563.881 231.522 565.774 233.015C567.668 234.482 568.681 236.535 568.814 239.175H561.414C561.361 238.268 561.028 237.562 560.414 237.055C559.801 236.522 559.014 236.255 558.054 236.255C557.228 236.255 556.561 236.482 556.054 236.935C555.548 237.362 555.294 237.988 555.294 238.815C555.294 239.722 555.721 240.428 556.574 240.935C557.428 241.442 558.761 241.988 560.574 242.575C562.388 243.188 563.854 243.775 564.974 244.335C566.121 244.895 567.108 245.708 567.934 246.775C568.761 247.842 569.174 249.215 569.174 250.895C569.174 252.495 568.761 253.948 567.934 255.255C567.134 256.562 565.961 257.602 564.414 258.375C562.868 259.148 561.041 259.535 558.934 259.535ZM595.184 231.175V236.655H587.744V259.255H580.904V236.655H573.464V231.175H595.184ZM627.773 254.295H617.293L615.613 259.255H608.453L618.613 231.175H626.533L636.693 259.255H629.453L627.773 254.295ZM626.013 249.015L622.533 238.735L619.093 249.015H626.013ZM640.225 245.175C640.225 242.402 640.825 239.935 642.025 237.775C643.225 235.588 644.892 233.895 647.025 232.695C649.185 231.468 651.625 230.855 654.345 230.855C657.678 230.855 660.532 231.735 662.905 233.495C665.278 235.255 666.865 237.655 667.665 240.695H660.145C659.585 239.522 658.785 238.628 657.745 238.015C656.732 237.402 655.572 237.095 654.265 237.095C652.158 237.095 650.452 237.828 649.145 239.295C647.838 240.762 647.185 242.722 647.185 245.175C647.185 247.628 647.838 249.588 649.145 251.055C650.452 252.522 652.158 253.255 654.265 253.255C655.572 253.255 656.732 252.948 657.745 252.335C658.785 251.722 659.585 250.828 660.145 249.655H667.665C666.865 252.695 665.278 255.095 662.905 256.855C660.532 258.588 657.678 259.455 654.345 259.455C651.625 259.455 649.185 258.855 647.025 257.655C644.892 256.428 643.225 254.735 642.025 252.575C640.825 250.415 640.225 247.948 640.225 245.175ZM687.774 259.255L681.934 248.655H680.294V259.255H673.454V231.175H684.934C687.147 231.175 689.027 231.562 690.574 232.335C692.147 233.108 693.321 234.175 694.094 235.535C694.867 236.868 695.254 238.362 695.254 240.015C695.254 241.882 694.721 243.548 693.654 245.015C692.614 246.482 691.067 247.522 689.014 248.135L695.494 259.255H687.774ZM680.294 243.815H684.534C685.787 243.815 686.721 243.508 687.334 242.895C687.974 242.282 688.294 241.415 688.294 240.295C688.294 239.228 687.974 238.388 687.334 237.775C686.721 237.162 685.787 236.855 684.534 236.855H680.294V243.815ZM714.428 259.535C711.788 259.535 709.361 258.922 707.148 257.695C704.961 256.468 703.214 254.762 701.908 252.575C700.628 250.362 699.988 247.882 699.988 245.135C699.988 242.388 700.628 239.922 701.908 237.735C703.214 235.548 704.961 233.842 707.148 232.615C709.361 231.388 711.788 230.775 714.428 230.775C717.068 230.775 719.481 231.388 721.668 232.615C723.881 233.842 725.614 235.548 726.868 237.735C728.148 239.922 728.788 242.388 728.788 245.135C728.788 247.882 728.148 250.362 726.868 252.575C725.588 254.762 723.854 256.468 721.668 257.695C719.481 258.922 717.068 259.535 714.428 259.535ZM714.428 253.295C716.668 253.295 718.454 252.548 719.788 251.055C721.148 249.562 721.828 247.588 721.828 245.135C721.828 242.655 721.148 240.682 719.788 239.215C718.454 237.722 716.668 236.975 714.428 236.975C712.161 236.975 710.348 237.708 708.988 239.175C707.654 240.642 706.988 242.628 706.988 245.135C706.988 247.615 707.654 249.602 708.988 251.095C710.348 252.562 712.161 253.295 714.428 253.295ZM744.353 259.535C742.3 259.535 740.46 259.202 738.833 258.535C737.206 257.868 735.9 256.882 734.913 255.575C733.953 254.268 733.446 252.695 733.393 250.855H740.673C740.78 251.895 741.14 252.695 741.753 253.255C742.366 253.788 743.166 254.055 744.153 254.055C745.166 254.055 745.966 253.828 746.553 253.375C747.14 252.895 747.433 252.242 747.433 251.415C747.433 250.722 747.193 250.148 746.713 249.695C746.26 249.242 745.686 248.868 744.993 248.575C744.326 248.282 743.366 247.948 742.113 247.575C740.3 247.015 738.82 246.455 737.673 245.895C736.526 245.335 735.54 244.508 734.713 243.415C733.886 242.322 733.473 240.895 733.473 239.135C733.473 236.522 734.42 234.482 736.313 233.015C738.206 231.522 740.673 230.775 743.713 230.775C746.806 230.775 749.3 231.522 751.193 233.015C753.086 234.482 754.1 236.535 754.233 239.175H746.833C746.78 238.268 746.446 237.562 745.833 237.055C745.22 236.522 744.433 236.255 743.473 236.255C742.646 236.255 741.98 236.482 741.473 236.935C740.966 237.362 740.713 237.988 740.713 238.815C740.713 239.722 741.14 240.428 741.993 240.935C742.846 241.442 744.18 241.988 745.993 242.575C747.806 243.188 749.273 243.775 750.393 244.335C751.54 244.895 752.526 245.708 753.353 246.775C754.18 247.842 754.593 249.215 754.593 250.895C754.593 252.495 754.18 253.948 753.353 255.255C752.553 256.562 751.38 257.602 749.833 258.375C748.286 259.148 746.46 259.535 744.353 259.535ZM770.562 259.535C768.509 259.535 766.669 259.202 765.042 258.535C763.416 257.868 762.109 256.882 761.122 255.575C760.162 254.268 759.656 252.695 759.602 250.855H766.882C766.989 251.895 767.349 252.695 767.962 253.255C768.576 253.788 769.376 254.055 770.362 254.055C771.376 254.055 772.176 253.828 772.762 253.375C773.349 252.895 773.642 252.242 773.642 251.415C773.642 250.722 773.402 250.148 772.922 249.695C772.469 249.242 771.896 248.868 771.202 248.575C770.536 248.282 769.576 247.948 768.322 247.575C766.509 247.015 765.029 246.455 763.882 245.895C762.736 245.335 761.749 244.508 760.922 243.415C760.096 242.322 759.682 240.895 759.682 239.135C759.682 236.522 760.629 234.482 762.522 233.015C764.416 231.522 766.882 230.775 769.922 230.775C773.016 230.775 775.509 231.522 777.402 233.015C779.296 234.482 780.309 236.535 780.442 239.175H773.042C772.989 238.268 772.656 237.562 772.042 237.055C771.429 236.522 770.642 236.255 769.682 236.255C768.856 236.255 768.189 236.482 767.682 236.935C767.176 237.362 766.922 237.988 766.922 238.815C766.922 239.722 767.349 240.428 768.202 240.935C769.056 241.442 770.389 241.988 772.202 242.575C774.016 243.188 775.482 243.775 776.602 244.335C777.749 244.895 778.736 245.708 779.562 246.775C780.389 247.842 780.802 249.215 780.802 250.895C780.802 252.495 780.389 253.948 779.562 255.255C778.762 256.562 777.589 257.602 776.042 258.375C774.496 259.148 772.669 259.535 770.562 259.535ZM823.048 231.175L813.088 259.255H804.528L794.568 231.175H801.848L808.808 252.375L815.808 231.175H823.048ZM844.987 254.295H834.507L832.827 259.255H825.667L835.827 231.175H843.747L853.907 259.255H846.667L844.987 254.295ZM843.227 249.015L839.747 238.735L836.307 249.015H843.227ZM872.919 259.255L867.079 248.655H865.439V259.255H858.599V231.175H870.079C872.293 231.175 874.173 231.562 875.719 232.335C877.293 233.108 878.466 234.175 879.239 235.535C880.013 236.868 880.399 238.362 880.399 240.015C880.399 241.882 879.866 243.548 878.799 245.015C877.759 246.482 876.213 247.522 874.159 248.135L880.639 259.255H872.919ZM865.439 243.815H869.679C870.933 243.815 871.866 243.508 872.479 242.895C873.119 242.282 873.439 241.415 873.439 240.295C873.439 239.228 873.119 238.388 872.479 237.775C871.866 237.162 870.933 236.855 869.679 236.855H865.439V243.815ZM893.133 231.175V259.255H886.293V231.175H893.133ZM912.97 259.535C910.33 259.535 907.903 258.922 905.69 257.695C903.503 256.468 901.757 254.762 900.45 252.575C899.17 250.362 898.53 247.882 898.53 245.135C898.53 242.388 899.17 239.922 900.45 237.735C901.757 235.548 903.503 233.842 905.69 232.615C907.903 231.388 910.33 230.775 912.97 230.775C915.61 230.775 918.023 231.388 920.21 232.615C922.423 233.842 924.157 235.548 925.41 237.735C926.69 239.922 927.33 242.388 927.33 245.135C927.33 247.882 926.69 250.362 925.41 252.575C924.13 254.762 922.397 256.468 920.21 257.695C918.023 258.922 915.61 259.535 912.97 259.535ZM912.97 253.295C915.21 253.295 916.997 252.548 918.33 251.055C919.69 249.562 920.37 247.588 920.37 245.135C920.37 242.655 919.69 240.682 918.33 239.215C916.997 237.722 915.21 236.975 912.97 236.975C910.703 236.975 908.89 237.708 907.53 239.175C906.197 240.642 905.53 242.628 905.53 245.135C905.53 247.615 906.197 249.602 907.53 251.095C908.89 252.562 910.703 253.295 912.97 253.295ZM939.455 231.175V247.975C939.455 249.655 939.869 250.948 940.695 251.855C941.522 252.762 942.735 253.215 944.335 253.215C945.935 253.215 947.162 252.762 948.015 251.855C948.869 250.948 949.295 249.655 949.295 247.975V231.175H956.135V247.935C956.135 250.442 955.602 252.562 954.535 254.295C953.469 256.028 952.029 257.335 950.215 258.215C948.429 259.095 946.429 259.535 944.215 259.535C942.002 259.535 940.015 259.108 938.255 258.255C936.522 257.375 935.149 256.068 934.135 254.335C933.122 252.575 932.615 250.442 932.615 247.935V231.175H939.455ZM972.698 259.535C970.645 259.535 968.805 259.202 967.178 258.535C965.552 257.868 964.245 256.882 963.258 255.575C962.298 254.268 961.792 252.695 961.738 250.855H969.018C969.125 251.895 969.485 252.695 970.098 253.255C970.712 253.788 971.512 254.055 972.498 254.055C973.512 254.055 974.312 253.828 974.898 253.375C975.485 252.895 975.778 252.242 975.778 251.415C975.778 250.722 975.538 250.148 975.058 249.695C974.605 249.242 974.032 248.868 973.338 248.575C972.672 248.282 971.712 247.948 970.458 247.575C968.645 247.015 967.165 246.455 966.018 245.895C964.872 245.335 963.885 244.508 963.058 243.415C962.232 242.322 961.818 240.895 961.818 239.135C961.818 236.522 962.765 234.482 964.658 233.015C966.552 231.522 969.018 230.775 972.058 230.775C975.152 230.775 977.645 231.522 979.538 233.015C981.432 234.482 982.445 236.535 982.578 239.175H975.178C975.125 238.268 974.792 237.562 974.178 237.055C973.565 236.522 972.778 236.255 971.818 236.255C970.992 236.255 970.325 236.482 969.818 236.935C969.312 237.362 969.058 237.988 969.058 238.815C969.058 239.722 969.485 240.428 970.338 240.935C971.192 241.442 972.525 241.988 974.338 242.575C976.152 243.188 977.618 243.775 978.738 244.335C979.885 244.895 980.872 245.708 981.698 246.775C982.525 247.842 982.938 249.215 982.938 250.895C982.938 252.495 982.525 253.948 981.698 255.255C980.898 256.562 979.725 257.602 978.178 258.375C976.632 259.148 974.805 259.535 972.698 259.535ZM1017.1 231.175V236.655H1005.66V242.575H1014.22V247.895H1005.66V259.255H998.824V231.175H1017.1ZM1029.14 231.175V259.255H1022.3V231.175H1029.14ZM1042.54 236.655V242.335H1051.7V247.615H1042.54V253.775H1052.9V259.255H1035.7V231.175H1052.9V236.655H1042.54ZM1065.78 253.975H1074.74V259.255H1058.94V231.175H1065.78V253.975ZM1090.12 231.175C1093.08 231.175 1095.67 231.762 1097.88 232.935C1100.09 234.108 1101.8 235.762 1103 237.895C1104.23 240.002 1104.84 242.442 1104.84 245.215C1104.84 247.962 1104.23 250.402 1103 252.535C1101.8 254.668 1100.08 256.322 1097.84 257.495C1095.63 258.668 1093.05 259.255 1090.12 259.255H1079.6V231.175H1090.12ZM1089.68 253.335C1092.27 253.335 1094.28 252.628 1095.72 251.215C1097.16 249.802 1097.88 247.802 1097.88 245.215C1097.88 242.628 1097.16 240.615 1095.72 239.175C1094.28 237.735 1092.27 237.015 1089.68 237.015H1086.44V253.335H1089.68ZM1120.42 259.535C1118.37 259.535 1116.53 259.202 1114.9 258.535C1113.28 257.868 1111.97 256.882 1110.98 255.575C1110.02 254.268 1109.52 252.695 1109.46 250.855H1116.74C1116.85 251.895 1117.21 252.695 1117.82 253.255C1118.44 253.788 1119.24 254.055 1120.22 254.055C1121.24 254.055 1122.04 253.828 1122.62 253.375C1123.21 252.895 1123.5 252.242 1123.5 251.415C1123.5 250.722 1123.26 250.148 1122.78 249.695C1122.33 249.242 1121.76 248.868 1121.06 248.575C1120.4 248.282 1119.44 247.948 1118.18 247.575C1116.37 247.015 1114.89 246.455 1113.74 245.895C1112.6 245.335 1111.61 244.508 1110.78 243.415C1109.96 242.322 1109.54 240.895 1109.54 239.135C1109.54 236.522 1110.49 234.482 1112.38 233.015C1114.28 231.522 1116.74 230.775 1119.78 230.775C1122.88 230.775 1125.37 231.522 1127.26 233.015C1129.16 234.482 1130.17 236.535 1130.3 239.175H1122.9C1122.85 238.268 1122.52 237.562 1121.9 237.055C1121.29 236.522 1120.5 236.255 1119.54 236.255C1118.72 236.255 1118.05 236.482 1117.54 236.935C1117.04 237.362 1116.78 237.988 1116.78 238.815C1116.78 239.722 1117.21 240.428 1118.06 240.935C1118.92 241.442 1120.25 241.988 1122.06 242.575C1123.88 243.188 1125.34 243.775 1126.46 244.335C1127.61 244.895 1128.6 245.708 1129.42 246.775C1130.25 247.842 1130.66 249.215 1130.66 250.895C1130.66 252.495 1130.25 253.948 1129.42 255.255C1128.62 256.562 1127.45 257.602 1125.9 258.375C1124.36 259.148 1122.53 259.535 1120.42 259.535Z" fill="white"/>
    <rect x="126.399" y="309.255" width="263" height="70" rx="35" fill="#FFB703"/>
    <path d="M179.302 337.783V342.679H185.062V344.911H179.302V350.023H185.782V352.255H176.566V335.551H185.782V337.783H179.302ZM196.808 343.927L201.992 352.255H198.92L195.152 346.207L191.624 352.255H188.576L193.76 343.927L188.552 335.575H191.624L195.416 341.671L198.968 335.575H202.016L196.808 343.927ZM216.66 340.543C216.66 341.391 216.46 342.191 216.06 342.943C215.66 343.695 215.02 344.311 214.14 344.791C213.26 345.255 212.132 345.487 210.756 345.487H207.732V352.255H204.996V335.575H210.756C212.036 335.575 213.116 335.799 213.996 336.247C214.892 336.679 215.556 337.271 215.988 338.023C216.436 338.775 216.66 339.615 216.66 340.543ZM210.756 343.255C211.796 343.255 212.572 343.023 213.084 342.559C213.596 342.079 213.852 341.407 213.852 340.543C213.852 338.719 212.82 337.807 210.756 337.807H207.732V343.255H210.756ZM222.005 350.047H227.645V352.255H219.269V335.575H222.005V350.047ZM237.541 352.423C235.989 352.423 234.557 352.063 233.245 351.343C231.949 350.607 230.917 349.591 230.149 348.295C229.397 346.983 229.021 345.511 229.021 343.879C229.021 342.247 229.397 340.783 230.149 339.487C230.917 338.191 231.949 337.183 233.245 336.463C234.557 335.727 235.989 335.359 237.541 335.359C239.109 335.359 240.541 335.727 241.837 336.463C243.149 337.183 244.181 338.191 244.933 339.487C245.685 340.783 246.061 342.247 246.061 343.879C246.061 345.511 245.685 346.983 244.933 348.295C244.181 349.591 243.149 350.607 241.837 351.343C240.541 352.063 239.109 352.423 237.541 352.423ZM237.541 350.047C238.645 350.047 239.629 349.799 240.493 349.303C241.357 348.791 242.029 348.071 242.509 347.143C243.005 346.199 243.253 345.111 243.253 343.879C243.253 342.647 243.005 341.567 242.509 340.639C242.029 339.711 241.357 338.999 240.493 338.503C239.629 338.007 238.645 337.759 237.541 337.759C236.437 337.759 235.453 338.007 234.589 338.503C233.725 338.999 233.045 339.711 232.549 340.639C232.069 341.567 231.829 342.647 231.829 343.879C231.829 345.111 232.069 346.199 232.549 347.143C233.045 348.071 233.725 348.791 234.589 349.303C235.453 349.799 236.437 350.047 237.541 350.047ZM257.418 352.255L253.578 345.583H251.49V352.255H248.754V335.575H254.514C255.794 335.575 256.874 335.799 257.754 336.247C258.65 336.695 259.314 337.295 259.746 338.047C260.194 338.799 260.418 339.639 260.418 340.567C260.418 341.655 260.098 342.647 259.458 343.543C258.834 344.423 257.866 345.023 256.554 345.343L260.682 352.255H257.418ZM251.49 343.399H254.514C255.538 343.399 256.306 343.143 256.818 342.631C257.346 342.119 257.61 341.431 257.61 340.567C257.61 339.703 257.354 339.031 256.842 338.551C256.33 338.055 255.554 337.807 254.514 337.807H251.49V343.399ZM266.654 337.783V342.679H272.414V344.911H266.654V350.023H273.134V352.255H263.918V335.551H273.134V337.783H266.654ZM296.442 352.255H293.706L285.474 339.799V352.255H282.738V335.551H285.474L293.706 347.983V335.551H296.442V352.255ZM307.643 352.423C306.091 352.423 304.659 352.063 303.347 351.343C302.051 350.607 301.019 349.591 300.251 348.295C299.499 346.983 299.123 345.511 299.123 343.879C299.123 342.247 299.499 340.783 300.251 339.487C301.019 338.191 302.051 337.183 303.347 336.463C304.659 335.727 306.091 335.359 307.643 335.359C309.211 335.359 310.643 335.727 311.939 336.463C313.251 337.183 314.283 338.191 315.035 339.487C315.787 340.783 316.163 342.247 316.163 343.879C316.163 345.511 315.787 346.983 315.035 348.295C314.283 349.591 313.251 350.607 311.939 351.343C310.643 352.063 309.211 352.423 307.643 352.423ZM307.643 350.047C308.747 350.047 309.731 349.799 310.595 349.303C311.459 348.791 312.131 348.071 312.611 347.143C313.107 346.199 313.355 345.111 313.355 343.879C313.355 342.647 313.107 341.567 312.611 340.639C312.131 339.711 311.459 338.999 310.595 338.503C309.731 338.007 308.747 337.759 307.643 337.759C306.539 337.759 305.555 338.007 304.691 338.503C303.827 338.999 303.147 339.711 302.651 340.639C302.171 341.567 301.931 342.647 301.931 343.879C301.931 345.111 302.171 346.199 302.651 347.143C303.147 348.071 303.827 348.791 304.691 349.303C305.555 349.799 306.539 350.047 307.643 350.047ZM340.575 335.575L335.631 352.255H332.535L329.031 339.631L325.311 352.255L322.239 352.279L317.511 335.575H320.415L323.871 349.159L327.615 335.575H330.687L334.167 349.087L337.647 335.575H340.575Z" fill="#253344"/>
    </g>
    <defs>
    <linearGradient id="paint0_linear_205_3443" x1="151.658" y1="-502.987" x2="1297.69" y2="651.096" gradientUnits="userSpaceOnUse">
    <stop stop-color="white" stop-opacity="0"/>
    <stop offset="0.2747" stop-color="#FBFBFC" stop-opacity="0.2747"/>
    <stop offset="0.5914" stop-color="#EFEFF2" stop-opacity="0.5914"/>
    <stop offset="0.9278" stop-color="#DCDBE1" stop-opacity="0.9278"/>
    <stop offset="1" stop-color="#D7D6DD"/>
    </linearGradient>
    <linearGradient id="paint1_linear_205_3443" x1="-296.482" y1="357.086" x2="933.276" y2="194.92" gradientUnits="userSpaceOnUse">
    <stop stop-color="white" stop-opacity="0"/>
    <stop offset="1" stop-color="#D7D6DD"/>
    </linearGradient>
    <clipPath id="clip0_205_3443">
    <rect width="1420" height="507" fill="white"/>
    </clipPath>
    <clipPath id="clip1_205_3443">
    <rect width="74.61" height="19.81" fill="white" transform="matrix(-1 0 0 1 1231.23 418.115)"/>
    </clipPath>
    </defs>
    </svg>
    